<svg width="32" height="29" viewBox="0 0 32 29" fill="none" xmlns="http://www.w3.org/2000/svg">
<g id="Buy 2">
<g id="Vector">
<path d="M2.30353 1.42412C2.16957 0.88833 1.62663 0.562581 1.09084 0.696543C0.555047 0.830504 0.229299 1.37345 0.36326 1.90924L1.76572 7.51854L3.0708 12.9638C3.62572 15.2793 4.06252 17.1018 4.58085 18.5177C5.11253 19.97 5.76454 21.0975 6.81064 21.9621C6.90092 22.0367 6.99289 22.1093 7.08649 22.1797C8.1711 22.9955 9.41952 23.3667 10.9558 23.5453C12.4534 23.7193 14.3275 23.7193 16.7084 23.7193H17.4998C19.5599 23.7193 21.1815 23.7193 22.4879 23.5872C23.8261 23.4519 24.9271 23.1711 25.9179 22.5507C26.3879 22.2565 26.8246 21.9121 27.2203 21.5236C28.0015 20.7567 28.5163 19.8254 28.9427 18.6667H22.6669C22.1146 18.6667 21.6669 18.219 21.6669 17.6667C21.6669 17.1144 22.1146 16.6667 22.6669 16.6667H29.56C29.723 16.0607 29.8879 15.3958 30.0645 14.6667L18.6669 14.6667C18.1146 14.6667 17.6669 14.219 17.6669 13.6667C17.6669 13.1144 18.1146 12.6667 18.6669 12.6667L30.5433 12.6667C30.7414 11.8223 30.8966 11.098 30.9669 10.4834C31.0626 9.64634 31.0235 8.84932 30.6057 8.12161C30.427 7.81036 30.2035 7.52704 29.9425 7.2807C29.3322 6.70476 28.5663 6.48103 27.73 6.37898C26.9241 6.28066 25.9004 6.28068 24.6583 6.28071L3.5178 6.28071L2.30353 1.42412Z" fill="#2D264B"/>
<path d="M12.5616 28.3333C13.3367 28.3333 13.9651 27.705 13.9651 26.9298C13.9651 26.1547 13.3367 25.5263 12.5616 25.5263C11.7865 25.5263 11.1581 26.1547 11.1581 26.9298C11.1581 27.705 11.7865 28.3333 12.5616 28.3333Z" fill="#2D264B"/>
<path d="M20.9827 28.3333C21.7578 28.3333 22.3862 27.705 22.3862 26.9298C22.3862 26.1547 21.7578 25.5263 20.9827 25.5263C20.2075 25.5263 19.5791 26.1547 19.5791 26.9298C19.5791 27.705 20.2075 28.3333 20.9827 28.3333Z" fill="#2D264B"/>
</g>
</g>
</svg>
