<svg width="26" height="26" viewBox="0 0 26 26" fill="none" xmlns="http://www.w3.org/2000/svg">
<g id="Dollar Square">
<g id="Vector">
<path d="M11.7298 6.32457C11.8186 6.27332 11.9088 6.22725 12.0001 6.18625L12.0001 11.56C9.83069 10.602 9.62747 7.53834 11.7298 6.32457Z" fill="#2D264B"/>
<path d="M14.0001 19.8138L14.0001 14.44C16.1696 15.3979 16.3728 18.4617 14.2705 19.6754C14.1817 19.7267 14.0915 19.7728 14.0001 19.8138Z" fill="#2D264B"/>
<path fill-rule="evenodd" clip-rule="evenodd" d="M12.9397 1.76449e-07H13.0603C15.509 -1.07113e-05 17.4285 -1.93715e-05 18.9514 0.164971C20.5054 0.333342 21.7646 0.683099 22.8397 1.4642C23.4905 1.93708 24.0629 2.50945 24.5358 3.16031C25.3169 4.23541 25.6667 5.49459 25.835 7.04864C26 8.57146 26 10.4909 26 12.9395V13.0604C26 15.509 26 17.4285 25.835 18.9514C25.6667 20.5054 25.3169 21.7646 24.5358 22.8397C24.0629 23.4905 23.4905 24.0629 22.8397 24.5358C21.7646 25.3169 20.5054 25.6667 18.9514 25.835C17.4285 26 15.5091 26 13.0605 26H12.9396C10.491 26 8.57146 26 7.04864 25.835C5.49459 25.6667 4.23541 25.3169 3.16031 24.5358C2.50945 24.0629 1.93708 23.4905 1.4642 22.8397C0.683099 21.7646 0.333342 20.5054 0.164971 18.9514C-1.93715e-05 17.4285 -1.07113e-05 15.509 1.76449e-07 13.0603V12.9397C-1.07113e-05 10.491 -1.93715e-05 8.57148 0.164971 7.04864C0.333342 5.49459 0.683099 4.23541 1.4642 3.16031C1.93708 2.50945 2.50945 1.93708 3.16031 1.4642C4.23541 0.683099 5.49459 0.333342 7.04864 0.164971C8.57148 -1.93715e-05 10.491 -1.07113e-05 12.9397 1.76449e-07ZM14.0001 3.66667C14.0001 3.11438 13.5524 2.66667 13.0001 2.66667C12.4478 2.66667 12.0001 3.11438 12.0001 3.66667V4.07743C11.5644 4.18673 11.1368 4.3575 10.7298 4.59252C7.10063 6.68781 7.5619 12.0652 11.4949 13.5118L12.0001 13.6977L12.0001 19.9593C11.2869 19.7581 10.6497 19.2893 10.2507 18.5983L9.74998 17.731C9.47383 17.2527 8.86225 17.0888 8.38395 17.365C7.90566 17.6411 7.74178 18.2527 8.01793 18.731L8.51868 19.5983C9.28997 20.9343 10.5903 21.7728 12.0001 22.0046L12.0001 22.3333C12.0001 22.8856 12.4478 23.3333 13.0001 23.3333C13.5524 23.3333 14.0001 22.8856 14.0001 22.3333L14.0001 21.9226C14.4358 21.8133 14.8634 21.6425 15.2705 21.4075C18.8996 19.3122 18.4384 13.9348 14.5054 12.4882L14.0001 12.3023L14.0001 6.0407C14.7133 6.24183 15.3506 6.71063 15.7495 7.40166L16.2503 8.269C16.5264 8.74729 17.138 8.91116 17.6163 8.63502C18.0946 8.35888 18.2585 7.74729 17.9824 7.26899L17.4816 6.40166C16.7103 5.06571 15.4099 4.22711 14.0001 3.99533V3.66667Z" fill="#2D264B"/>
</g>
</g>
</svg>
