<svg width="24" height="29" viewBox="0 0 24 29" fill="none" xmlns="http://www.w3.org/2000/svg">
<g id="Lock 1">
<g id="Vector">
<path d="M10.3333 19C10.3333 18.0795 11.0795 17.3334 12 17.3334C12.9205 17.3334 13.6667 18.0795 13.6667 19C13.6667 19.9205 12.9205 20.6667 12 20.6667C11.0795 20.6667 10.3333 19.9205 10.3333 19Z" fill="#2D264B"/>
<path fill-rule="evenodd" clip-rule="evenodd" d="M12 0.666687C7.76582 0.666687 4.33333 4.09917 4.33333 8.33335V9.81831C4.33333 9.90738 4.34498 9.99374 4.36683 10.0759C2.45204 10.7795 0.959551 12.3243 0.32629 14.2732C0 15.2775 0 16.5183 0 19C0 21.4817 0 22.7226 0.32629 23.7268C0.985742 25.7564 2.57697 27.3476 4.60655 28.0071C5.61077 28.3334 6.85161 28.3334 9.33331 28.3334H14.6667C17.1484 28.3334 18.3892 28.3334 19.3934 28.0071C21.423 27.3476 23.0143 25.7564 23.6737 23.7268C24 22.7226 24 21.4817 24 19C24 16.5183 24 15.2775 23.6737 14.2732C23.0405 12.3243 21.548 10.7795 19.6332 10.0759C19.655 9.99374 19.6667 9.90738 19.6667 9.81831V8.33335C19.6667 4.09917 16.2342 0.666687 12 0.666687ZM14.6667 9.66669C15.9537 9.66669 16.907 9.66669 17.6667 9.7122V8.33335C17.6667 5.20374 15.1296 2.66669 12 2.66669C8.87039 2.66669 6.33333 5.20374 6.33333 8.33335V9.7122C7.09298 9.66669 8.04628 9.66669 9.33333 9.66669H14.6667ZM8.33333 19C8.33333 16.975 9.97496 15.3334 12 15.3334C14.025 15.3334 15.6667 16.975 15.6667 19C15.6667 21.0251 14.025 22.6667 12 22.6667C9.97496 22.6667 8.33333 21.0251 8.33333 19Z" fill="#2D264B"/>
</g>
</g>
</svg>
